<svg xmlns="http://www.w3.org/2000/svg" viewBox="0 0 32 32" width="32" height="32">
  <rect x="4" y="2" width="24" height="24" rx="5" fill="#0d9488"/>
  <rect x="8" y="5" width="4" height="3" rx="0.5" fill="#ffffff" opacity="0.35"/>
  <rect x="14" y="5" width="4" height="3" rx="0.5" fill="#ffffff" opacity="0.35"/>
  <rect x="20" y="5" width="4" height="3" rx="0.5" fill="#ffffff" opacity="0.35"/>
  <rect x="8" y="10" width="4" height="3" rx="0.5" fill="#ffffff" opacity="0.70"/>
  <rect x="14" y="10" width="4" height="3" rx="0.5" fill="#ffffff" opacity="0.70"/>
  <rect x="20" y="10" width="4" height="3" rx="0.5" fill="#ffffff" opacity="0.70"/>
  <rect x="8" y="15" width="4" height="3" rx="0.5" fill="#ffffff" opacity="0.70"/>
  <rect x="14" y="15" width="4" height="3" rx="0.5" fill="#ffffff" opacity="0.70"/>
  <rect x="20" y="15" width="4" height="3" rx="0.5" fill="#ffffff"/>
  <polyline points="9,22 14,19 19,20 25,16" fill="none" stroke="#ffffff" stroke-width="1.5" stroke-linecap="round" stroke-linejoin="round"/>
  <circle cx="25" cy="16" r="1.5" fill="#ffffff"/>
</svg>
